<svg width="50" height="9" viewBox="0 0 50 9" fill="none" xmlns="http://www.w3.org/2000/svg">
<path d="M0.657837 4.19408C0.657837 1.87775 2.53559 0 4.85191 0H25.3289H45.8059C48.1222 0 49.9999 1.87775 49.9999 4.19408V4.19408C49.9999 6.5104 48.1222 8.38816 45.8059 8.38816H4.85191C2.53558 8.38816 0.657837 6.5104 0.657837 4.19408V4.19408Z" fill="#D88C97"/>
<path d="M30.2632 4.19408C30.2632 1.87775 32.1409 0 34.4573 0H40.1316H45.8059C48.1223 0 50 1.87775 50 4.19408V4.19408C50 6.5104 48.1223 8.38816 45.8059 8.38816H34.4573C32.1409 8.38816 30.2632 6.5104 30.2632 4.19408V4.19408Z" fill="#DBB5BB"/>
<path d="M15.1316 4.19408C15.1316 1.87775 17.0093 0 19.3257 0H25H30.6744C32.9907 0 34.8684 1.87775 34.8684 4.19408V4.19408C34.8684 6.5104 32.9907 8.38816 30.6744 8.38816H19.3257C17.0093 8.38816 15.1316 6.5104 15.1316 4.19408V4.19408Z" fill="#D88C97"/>
<path d="M0 4.19408C0 1.87775 1.87775 0 4.19408 0H9.86842H15.5428C17.8591 0 19.7368 1.87775 19.7368 4.19408V4.19408C19.7368 6.5104 17.8591 8.38816 15.5428 8.38816H4.19408C1.87776 8.38816 0 6.5104 0 4.19408V4.19408Z" fill="#CD5A6A"/>
</svg>
