<svg width="191" height="307" viewBox="0 0 191 307" fill="none" xmlns="http://www.w3.org/2000/svg">
<path d="M92.535 5.79561L72.6416 135.111C105.679 118.353 143.292 124.462 157.969 129.612L175.746 10.7355L99.2411 0.758298C96.0085 0.336715 93.0307 2.57348 92.535 5.79561Z" fill="#E2533F" stroke="#E2533F"/>
<path d="M72.615 135.111L71.0364 146.859" stroke="#E2533F"/>
<path d="M118.726 306.307L112.477 206.582L120.288 204.764L121.85 306.307H118.726Z" fill="#CE8B54" stroke="#CE8B54"/>
<path d="M6.41843 297.483L19.9619 197.889L28.3488 197.589L9.62765 298.081L6.41843 297.483Z" fill="#CE8B54" stroke="#CE8B54"/>
<path d="M186.474 257.075L160.864 161.325L168.07 157.181L190 257.075L186.474 257.075Z" fill="#CE8B54" stroke="#CE8B54"/>
<path d="M96.2985 247.421L70.6891 151.671L77.8943 147.527L99.8247 247.421L96.2985 247.421Z" fill="#CE8B54" stroke="#CE8B54"/>
<path d="M17.9651 174.276L72.5955 146.642C94.9029 136.04 143.014 121.198 156.999 146.642C147.603 207.332 57.8453 205.298 17.9651 174.276Z" fill="#E2533F" stroke="#E2533F"/>
<g filter="url(#filter0_f)">
<path d="M34.3681 260.124L85.6225 229.543C106.551 217.81 151.689 201.385 164.811 229.543C155.995 296.706 71.7838 294.456 34.3681 260.124Z" fill="black" fill-opacity="0.4"/>
<path d="M34.3681 260.124L85.6225 229.543C106.551 217.81 151.689 201.385 164.811 229.543C155.995 296.706 71.7838 294.456 34.3681 260.124Z" stroke="black" stroke-opacity="0.41"/>
</g>
<path d="M179.014 12.9944C179.232 11.9519 176.885 11.0832 175.798 10.9094L158.122 129.231C130.658 121.152 100.202 121.934 73.2809 134.965L70.8335 147.214C93.3129 136.094 141.97 120.318 156.763 146.171C156.853 155.06 151.814 174.489 123.316 188.392C108.903 195.423 27.5045 183.44 18.8491 174.058C12.3228 177.602 17.7614 193.126 21.0245 200.51L99.6579 209.111L134.962 200.641L179.014 152.687C178.924 106.557 178.797 14.0369 179.014 12.9944Z" fill="#DE432E" stroke="#E3422D"/>
<defs>
<filter id="filter0_f" x="12.5355" y="192.496" width="173.79" height="112.652" filterUnits="userSpaceOnUse" color-interpolation-filters="sRGB">
<feFlood flood-opacity="0" result="BackgroundImageFix"/>
<feBlend mode="normal" in="SourceGraphic" in2="BackgroundImageFix" result="shape"/>
<feGaussianBlur stdDeviation="10.5" result="effect1_foregroundBlur"/>
</filter>
</defs>
</svg>
